# xmcd
#
# Track frame offsets:
#	150
#	14734
#	29101
#	43124
#	57663
#	72550
#	87423
#	102558
#	116386
#	129040
#
# Disc length: 1923 seconds
#
# Revision: 0
# Processed by: cddbd v1.5.2PL0 Copyright (c) Steve Scherf et al.
# Submitted via: EasyCDDAExtractor 16.0.6.1
#
DISCID=9407810a
DTITLE=Συλλογικός δίσκος - Ιστορία ρεμπέτικου και λαϊκού 02-1
DYEAR=2007
DGENRE=Ποικίλη
TTITLE0=Βαμβακάρης Μάρκος - Όταν πίνω τουμπεκάκι [Μ. Βαμβακάρης]
TTITLE1=Βαμβακάρης Μάρκος - Ο μαστούρας [Μ. Βαμβακάρης]
TTITLE2=Βαμβακάρης Μάρκος - Ο χασάπης [Μ. Βαμβακάρης]
TTITLE3=Βαμβακάρης Μάρκος - Θέλω μαστούρης να γινώ [Μ. Βαμβακάρης]
TTITLE4=Βαμβακάρης Μάρκος - Ο αραμπατζής [Μ. Βαμβακάρης]
TTITLE5=Βαμβακάρης Μάρκος-Αμπατζή Ρίτα - Σαν είσαι μάγκας και νταής [Μ. Βαμβακ
TTITLE5=άρης]
TTITLE6=Βαμβακάρης Μάρκος - Αλανιάρης [Μ. Βαμβακάρης]
TTITLE7=Μπάτης Γιώργος - Θερμαστής [Γιώργος Μπάτης]
TTITLE8=Γκόγκος Δημήτρης ή Μπαγιαντέρας - Καπνουλού μου όμορφη [Δημ. Γκόγκος]
TTITLE9=Εσκενάζυ Ρόζα - Στη Δραπετσώνα [Παν. Τούντας]
EXTD=
EXTT0=
EXTT1=
EXTT2=
EXTT3=
EXTT4=
EXTT5=
EXTT6=
EXTT7=
EXTT8=
EXTT9=
PLAYORDER=
